<?xml version="1.0" encoding="utf-8"?>
<!-- Generator: Adobe Illustrator 28.0.0, SVG Export Plug-In . SVG Version: 6.00 Build 0)  -->
<svg version="1.1" id="Layer_1" xmlns="http://www.w3.org/2000/svg" xmlns:xlink="http://www.w3.org/1999/xlink" x="0px" y="0px"
	 viewBox="0 0 24 24" style="enable-background:new 0 0 24 24;" xml:space="preserve">
<path d="M12.1,1.6c-0.4,0-0.7,0.1-1,0.3C9.1,3,6.9,4.3,4.6,5.6c0,0,0,0,0,0c-1.1,0.7-2,1.7-2.2,2.9c0,0,0,0,0,0
	c-0.4,3-0.2,6,0.5,8.9c0,0,0,0,0,0c0.2,0.8,0.7,1.6,1.3,2.2s1.4,1.1,2.2,1.4c0,0,0,0,0,0c3.7,0.9,7.4,0.9,11.1,0c0,0,0,0,0,0
	c0.8-0.2,1.6-0.7,2.2-1.4s1.1-1.4,1.3-2.2c0,0,0,0,0,0c0.7-3,0.9-6,0.5-8.9c0,0,0,0,0,0c-0.2-1.2-1.1-2.3-2.2-2.9c0,0,0,0,0,0
	C17.2,4.3,15,3,13.1,1.9C12.8,1.7,12.4,1.6,12.1,1.6z M12.1,3.1c0.1,0,0.2,0,0.2,0.1c1.9,1.1,4.1,2.4,6.3,3.8
	C19.4,7.4,20,8.2,20,8.7c0.3,2.8,0.2,5.6-0.5,8.4c-0.1,0.4-0.5,1-0.9,1.5c-0.5,0.5-1,0.8-1.5,0.9c-0.6,0.1-1.1,0.1-1.7,0.2
	c0.3-1.9,0.3-3.9-0.1-5.9c0-0.1,0-0.1,0-0.2c0,0,0,0,0-0.1c0,0,0,0,0,0c0,0,0,0,0,0c0,0,0,0,0,0c0,0,0,0,0-0.1c0,0,0,0,0-0.1
	c-0.1-0.2-0.4-0.4-0.7-0.4c-1.7-0.7-3.5-0.7-5.2,0c-0.4,0-0.7,0.2-0.8,0.6c0,0,0,0,0,0c0,0.1,0,0.1,0,0.2c0,0,0,0,0,0
	c-0.4,1.9-0.4,3.9-0.1,5.9c-0.6-0.1-1.1-0.1-1.7-0.2c-0.4-0.1-1-0.5-1.5-0.9c-0.5-0.5-0.8-1.1-0.9-1.5C3.8,14.3,3.6,11.5,4,8.7v0
	C4,8.2,4.6,7.4,5.4,6.9c2.3-1.3,4.5-2.7,6.4-3.8c0,0,0,0,0,0C11.9,3.1,12,3.1,12.1,3.1z M12,14c0.7,0,1.3,0.2,1.9,0.5
	c0.3,1.8,0.4,3.7,0,5.5c-1.3,0.1-2.5,0.1-3.8,0c-0.4-1.8-0.4-3.7,0-5.5C10.7,14.2,11.3,14,12,14z"/>
</svg>
