<?xml version="1.0" encoding="utf-8"?>
<!-- Generator: Adobe Illustrator 28.0.0, SVG Export Plug-In . SVG Version: 6.00 Build 0)  -->
<svg version="1.1" id="Layer_1" xmlns="http://www.w3.org/2000/svg" xmlns:xlink="http://www.w3.org/1999/xlink" x="0px" y="0px"
	 viewBox="0 0 24 24" style="enable-background:new 0 0 24 24;" xml:space="preserve">
<path d="M21.6,8.5c-0.1-1.1-1-2.2-2.2-2.9c-1.1-0.6-2.2-1.3-3.2-1.9c-1.1-0.7-2.1-1.3-3.1-1.9c-0.6-0.4-1.4-0.4-2,0
	c-1.1,0.6-2.2,1.3-3.4,2c-1,0.6-2,1.2-3,1.8c-1.2,0.7-2,1.8-2.2,2.9c-0.4,3-0.2,6,0.5,8.9c0.4,1.5,2,3.1,3.5,3.5
	c1.8,0.5,3.7,0.7,5.6,0.7s3.7-0.2,5.6-0.7c0,0,0,0,0,0c1.5-0.4,3.1-2,3.5-3.6C21.8,14.5,21.9,11.5,21.6,8.5z M15.2,19.1
	c-0.1,0.5-0.5,0.9-1,1c-1.4,0.1-2.9,0.1-4.3,0c-0.5-0.1-0.9-0.5-1-1c-0.2-1.6-0.2-3.2,0.2-4.8c0.1-0.5,0.5-0.9,1-1.1
	c1.3-0.5,2.6-0.5,4,0c0.5,0.2,0.9,0.6,1,1.1C15.3,15.9,15.4,17.5,15.2,19.1z"/>
</svg>
