<?xml version="1.0" encoding="utf-8"?>
<!-- Generator: Adobe Illustrator 28.0.0, SVG Export Plug-In . SVG Version: 6.00 Build 0)  -->
<svg version="1.1" id="Layer_1" xmlns="http://www.w3.org/2000/svg" xmlns:xlink="http://www.w3.org/1999/xlink" x="0px" y="0px"
	 viewBox="0 0 24 24" style="enable-background:new 0 0 24 24;" xml:space="preserve">
<path d="M12,2.2c5.4,0,9.8,4.4,9.8,9.8s-4.4,9.8-9.8,9.8S2.2,17.4,2.2,12S6.6,2.2,12,2.2z M12.9,16.4c0-0.3,0-4.2,0-4.4
	c0-0.5-0.4-0.9-0.9-0.9s-0.9,0.4-0.9,0.9c0,0.3,0,4.2,0,4.4c0,0.5,0.4,0.9,0.9,0.9S12.9,16.9,12.9,16.4z M12,9.8
	c0.7,0,1.3-0.6,1.3-1.3S12.7,7.1,12,7.1s-1.3,0.6-1.3,1.3S11.3,9.8,12,9.8z"/>
</svg>
