<?xml version="1.0" encoding="utf-8"?>
<!-- Generator: Adobe Illustrator 28.0.0, SVG Export Plug-In . SVG Version: 6.00 Build 0)  -->
<svg version="1.1" id="Layer_1" xmlns="http://www.w3.org/2000/svg" xmlns:xlink="http://www.w3.org/1999/xlink" x="0px" y="0px"
	 viewBox="0 0 24 24" style="enable-background:new 0 0 24 24;" xml:space="preserve">
<path d="M13.3,21.8h-2.6c-0.9,0-1.7-0.7-1.9-1.6l-0.2-1.3c0-0.1-0.1-0.3-0.3-0.3c-0.1,0-0.2-0.1-0.2-0.1c-0.1-0.1-0.3-0.1-0.4-0.1
	l-1.2,0.5c-0.9,0.3-1.8,0-2.3-0.8l-1.3-2.2C2.4,15,2.6,14,3.3,13.4l1-0.8c0.1-0.1,0.2-0.2,0.2-0.4v-0.3c0-0.2-0.1-0.3-0.2-0.4
	l-1-0.8C2.6,10,2.4,9,2.9,8.2L4.2,6c0.5-0.8,1.4-1.1,2.3-0.8l1.2,0.5c0.1,0,0.3,0,0.4-0.1l0.2-0.1c0.2-0.1,0.3-0.2,0.3-0.3l0.2-1.3
	C9,2.9,9.8,2.2,10.7,2.2h2.6c0.9,0,1.7,0.7,1.9,1.6l0.2,1.3c0,0.1,0.1,0.3,0.3,0.3c0.1,0,0.2,0.1,0.2,0.1c0.1,0.1,0.3,0.1,0.4,0.1
	l1.2-0.5c0.9-0.3,1.8,0,2.3,0.8l1.3,2.2c0.5,0.8,0.3,1.8-0.4,2.4l-1,0.8c-0.1,0.1-0.2,0.2-0.2,0.4v0.3c0,0.2,0.1,0.3,0.2,0.4l1,0.8
	c0.7,0.6,0.9,1.6,0.4,2.4L19.8,18c-0.5,0.8-1.4,1.1-2.3,0.8l-1.2-0.5c-0.1,0-0.3,0-0.4,0.1c-0.1,0-0.2,0.1-0.2,0.1
	c-0.1,0.1-0.2,0.2-0.3,0.3l-0.2,1.3C15,21.1,14.2,21.8,13.3,21.8z M7.8,16.8c0.4,0,0.7,0.1,1.1,0.3l0.2,0.1c0.6,0.3,0.9,0.8,1,1.4
	l0.2,1.3c0,0.2,0.2,0.3,0.4,0.3h2.6c0.2,0,0.3-0.1,0.4-0.3l0.2-1.3c0.1-0.6,0.5-1.1,1-1.4l0.2-0.1c0.5-0.3,1.2-0.4,1.7-0.2l1.2,0.5
	c0.2,0.1,0.4,0,0.5-0.2l1.3-2.2c0.1-0.2,0.1-0.4-0.1-0.5l-1-0.8c-0.5-0.4-0.7-1-0.7-1.6v-0.2c0-0.6,0.2-1.2,0.7-1.6l1-0.8
	c0.1-0.1,0.2-0.3,0.1-0.5l-1.3-2.2c-0.1-0.2-0.3-0.2-0.5-0.2L16.8,7c-0.6,0.2-1.2,0.1-1.7-0.2c-0.1,0-0.1-0.1-0.2-0.1
	c-0.6-0.3-0.9-0.8-1-1.4l-0.2-1.3c0-0.2-0.2-0.3-0.4-0.3h-2.6c-0.2,0-0.3,0.1-0.4,0.3c0,0,0,0,0,0l-0.2,1.3c-0.1,0.6-0.5,1.1-1,1.4
	L8.9,6.9C8.4,7.2,7.7,7.3,7.2,7L6,6.6c-0.2-0.1-0.4,0-0.5,0.2L4.2,9C4.1,9.2,4.2,9.4,4.3,9.5l1,0.8c0.5,0.4,0.7,1,0.7,1.6v0.2
	c0,0.6-0.2,1.2-0.7,1.6l-1,0.8c-0.1,0.1-0.2,0.3-0.1,0.5l1.3,2.2c0.1,0.2,0.3,0.2,0.5,0.2L7.2,17C7.4,16.9,7.6,16.8,7.8,16.8z
	 M9.6,3.9L9.6,3.9L9.6,3.9z M12,15.8c-2.1,0-3.8-1.7-3.8-3.8c0-2.1,1.7-3.8,3.8-3.8c2.1,0,3.8,1.7,3.8,3.8
	C15.8,14.1,14.1,15.8,12,15.8z M12,9.8c-1.2,0-2.2,1-2.2,2.2c0,1.2,1,2.2,2.2,2.2c1.2,0,2.2-1,2.2-2.2C14.2,10.8,13.2,9.8,12,9.8z"
	/>
</svg>
